PathFileType	4	(X/Y/Z)	4_coords_data.trc
DataRate	CameraRate	NumFrames	NumMarkers	Units	OrigDataRate	OrigDataStartFrame	OrigNumFrames
30.0	30.0	8	21	m	30.0	40	49
Frame#	Time	THUMB_TIP	THUMB_IP	THUMB_MCP	THUMB_CMC	INDEX_TIP	INDEX_DIP	INDEX_PIP	INDEX_MCP	MIDDLE_TIP	MIDDLE_DIP	MIDDLE_PIP	MIDDLE_MCP	RING_TIP	RING_DIP	RING_PIP	RING_MCP	PINKY_TIP	PINKY_DIP	PINKY_PIP	PINKY_MCP	WRIST
X1	Y1	Z1	X2	Y2	Z2	X3	Y3	Z3	X4	Y4	Z4	X5	Y5	Z5	X6	Y6	Z6	X7	Y7	Z7	X8	Y8	Z8	X9	Y9	Z9	X10	Y10	Z10	X11	Y11	Z11	X12	Y12	Z12	X13	Y13	Z13	X14	Y14	Z14	X15	Y15	Z15	X16	Y16	Z16	X17	Y17	Z17	X18	Y18	Z18	X19	Y19	Z19	X20	Y20	Z20	X21	Y21	Z21
38	1.299999999999994	0.5232861657802832	0.016375217684699628	-0.14892402761207507	0.5089365511448626	0.005091458763040291	-0.13496819211530897	0.49771774168046246	0.006606181896106733	-0.10597398703857613	0.4706525621288329	-0.01567003566108527	-0.07838529030997538	0.5606543472634946	-0.06582161784995177	-0.18019232430647875	0.553062288112296	-0.05859372145800712	-0.16542350067045358	0.5420768608044167	-0.04891606741618504	-0.14498644530256594	0.5227831151520583	-0.03381487946839645	-0.11015339210208303	0.542781242900047	-0.0990433385974725	-0.18199742853246348	0.5372331999068498	-0.09030294722386278	-0.16713725432144688	0.5291490538508123	-0.07702186148185164	-0.14248631328346606	0.513240909163271	-0.055057831987417205	-0.10698053541608427	0.5191439764386686	-0.11851724648065431	-0.16987247424273488	0.5151697984673744	-0.10923142054111068	-0.15493998128030623	0.5105456829451605	-0.09609678162110336	-0.13429346111156482	0.49781626190865513	-0.06927501165755079	-0.10684759930877841	0.47821108070511165	-0.1262424604264033	-0.15482575640088292	0.47853229904657313	-0.1159026736954114	-0.14118810157555783	0.47947403269231137	-0.10285623573123681	-0.12476508074541132	0.4786206708724986	-0.07506401803598717	-0.10179231730292693	0.4622830810018608	-0.023011742144276925	-0.051989820119430985
39	1.3333333333333275	0.5267556130290596	0.017707424866751365	-0.14623854153962823	0.5116740592699774	0.006519590419064802	-0.13299546423172615	0.49996794681704027	0.0072458590127331135	-0.10416389359866768	0.47153311691861344	-0.014865991131853273	-0.07785008483157946	0.5623761582927088	-0.06510133351003577	-0.17949347349754713	0.5544328503508529	-0.05801669416160049	-0.1648404279354993	0.5429834043307802	-0.04852468376376018	-0.14457168950804067	0.5229775083602554	-0.03391298047787017	-0.10993214061516887	0.5420031510937227	-0.09769789770511828	-0.18333340891788324	0.5364001630746628	-0.08900570700236976	-0.16846557968677744	0.528249364896385	-0.07594885848742805	-0.14371698890033374	0.5128287592100713	-0.05481222246532935	-0.10750103303918646	0.5173957040230583	-0.11665495434827355	-0.17228248015127529	0.513478608915466	-0.1074777270972086	-0.157267991618515	0.5089880704663884	-0.09469304912996379	-0.13637380456299159	0.4970397784962818	-0.06853933125342782	-0.10794948057399123	0.4762292570041634	-0.12348966117574489	-0.1577870685682542	0.47670912044090186	-0.11355294458020626	-0.14385755334402522	0.4778577343531961	-0.10103190848604493	-0.12704338193389642	0.47768869789306645	-0.07396389058556241	-0.10320691229986062	0.462283081001861	-0.023011742144276925	-0.051989820119430985
41	1.3666666666666676	0.5292671235144786	0.018665673530570137	-0.14418245858520706	0.5137116569135475	0.0075293844768040685	-0.13145412307194027	0.5016262121550223	0.007654161299377682	-0.10277056583555155	0.47224876981616215	-0.014337174672642172	-0.07740844794700191	0.5637106255742375	-0.06432265480553057	-0.17888874864036575	0.5555189411849902	-0.05735345473790676	-0.1643173191537164	0.5437284280560638	-0.04801470915273587	-0.1441733010825353	0.5232509541705096	-0.03370625988093123	-0.10968304975404192	0.5419299141569129	-0.09605889831822667	-0.1843620035484685	0.5362751770224636	-0.08750863864300629	-0.16943159808088049	0.5280149449377016	-0.07471741095798434	-0.14458079104738963	0.5126940571361409	-0.05437231688141464	-0.10787254313241124	0.5167900132394813	-0.11465731726629691	-0.17414688628574249	0.5128604439686089	-0.10567656610499254	-0.15901729296919404	0.50837962284094	-0.09326264718227983	-0.13789865574985266	0.49672307745117406	-0.0677876439671461	-0.10874612593226646	0.47554710188313687	-0.12122603967361756	-0.15996890654538154	0.4760494287878382	-0.11161760218129324	-0.14581173180474533	0.4772356543976435	-0.09951423091382672	-0.12869702199813426	0.47736961831136326	-0.07303620420582457	-0.10420662375065465	0.4622830810018608	-0.023011742144276925	-0.051989820119430985
42	1.400000000000001	0.5312915601897241	0.019311197047573225	-0.14254007836552812	0.5153791423632695	0.008262233340466385	-0.1301822727385018	0.5029386851968589	0.007912789572083079	-0.10165276319936939	0.4728467622499867	-0.013952219447261549	-0.07702985610163865	0.5647867280612087	-0.06348600383226533	-0.17839374334176028	0.5564158562008203	-0.05659839912824327	-0.1638854903201835	0.5443730450605608	-0.04737646312901378	-0.1438371380371115	0.5235172256389926	-0.033316638072596994	-0.10947157082750625	0.5420705171727797	-0.0943257954702299	-0.18523115282651387	0.5364178078821479	-0.08591186670233109	-0.17022273251109327	0.5281016786972026	-0.07336460717117343	-0.14526641420015085	0.5127311685424022	-0.053787858476928574	-0.10816323038604175	0.5166895825005359	-0.11262392862897774	-0.17570888297488652	0.5127834808153093	-0.10384605628441934	-0.16045465973254125	0.508309595407862	-0.0917843878126412	-0.13913142165672482	0.49670828354173047	-0.06700498477350725	-0.10936379524800838	0.4755731618134278	-0.11920751382437977	-0.1617462954260197	0.4760510718852685	-0.10990473539697843	-0.14738558807944702	0.47720139686640406	-0.09817305451410452	-0.13001157198931435	0.47740224928366903	-0.07220860808199081	-0.1049777822086922	0.4622830810018608	-0.023011742144276925	-0.051989820119430985
43	1.4333333333333345	0.5328157093280256	0.019687275622059408	-0.14133897035895387	0.5166527277785489	0.008742846333835597	-0.12921554283261677	0.503905851662232	0.008054928666382688	-0.10082780043280481	0.47330817626316823	-0.013700574935626708	-0.07673692408518124	0.5655682088534668	-0.06270927049071007	-0.17802772635617897	0.557087939475144	-0.05587539464428237	-0.16355764784268462	0.544884224512505	-0.04673639281003794	-0.14356870540982103	0.5237599514215449	-0.032861755706471873	-0.10929195489838989	0.542331666323533	-0.09271730162470393	-0.18589784785790542	0.5367143878332978	-0.08442765813281317	-0.17080718872251666	0.5283850131164771	-0.07209371531250375	-0.1457491576479863	0.5128789601822593	-0.05318480192134234	-0.10835713660382784	0.516920839603448	-0.11078013994013958	-0.1769077069832971	0.5130587834394814	-0.10219708680224793	-0.1615318908742739	0.508589971488906	-0.09044664001613201	-0.14003452594093724	0.49688983535700526	-0.06630343640535818	-0.10978666043105845	0.47603837098246393	-0.11757960794396116	-0.1630619686015809	0.4764696118760483	-0.10854358282260479	-0.1485304758600241	0.47754556564334993	-0.09711942216086067	-0.13094801597338468	0.47765430356202176	-0.07155343710000761	-0.10550686751398364	0.4622830810018609	-0.023011742144276925	-0.051989820119430985
44	1.466666666666668	0.5338115100113954	0.019830606631672132	-0.14060307146554657	0.5174982689717621	0.008991015580657069	-0.12858718894991	0.504518627109262	0.008109258678789422	-0.10031049533330694	0.47361152542858165	-0.013573076955326613	-0.07655092069170977	0.5660184524265548	-0.06211070287845244	-0.17780985181967823	0.5574999813856439	-0.05530893955453875	-0.16334708352275018	0.5452300539622189	-0.04622196904222475	-0.14337496092818802	0.5239636063453685	-0.03246075299904727	-0.10914042817582287	0.5426228143186763	-0.09145720338920671	-0.18632360316857333	0.5370539233345696	-0.0832728354567247	-0.1711577344248153	0.5287431006062131	-0.07111217863281394	-0.146009012763687	0.5130778566992296	-0.05269267566656377	-0.10843947770120554	0.5173117012079061	-0.10936100334532561	-0.17768325827062742	0.5134986079336886	-0.10094935402534966	-0.1622008658392276	0.5090337058521195	-0.08944579967041388	-0.14056957217460736	0.4971626560743476	-0.06579831249941581	-0.10999841973196711	0.4766730197919079	-0.11649357135438543	-0.16385212475311617	0.47706019154525847	-0.10766820112194997	-0.14919051030265912	0.4780581711913121	-0.09646871998387707	-0.13145952956655732	0.47799219351775113	-0.07114610976648328	-0.1057759840612238	0.4622830810018608	-0.023011742144276925	-0.051989820119430985
45	1.5000000000000013	0.5342386293993255	0.019773267146642737	-0.14034956308794533	0.5178724254604078	0.009022940450829742	-0.1283255103367701	0.5047595994471252	0.008100778997649494	-0.10011162346878172	0.4737329627050091	-0.013561749950095958	-0.07649017871912972	0.5661005736612791	-0.06180879879822365	-0.17775809515999164	0.5576171579647315	-0.05502414818483281	-0.1632667124042368	0.5453796649922483	-0.04596176134230079	-0.14326354406857744	0.5241137070367591	-0.032234595730097015	-0.10901503971451115	0.5428556037858406	-0.09077297376837146	-0.18647344267106603	0.5373272530693289	-0.08266737305030958	-0.17125054625301855	0.5290558329981128	-0.07063030764783396	-0.14602947933462662	0.5132691040687165	-0.05244431226564272	-0.10839709058944214	0.5176893634167156	-0.10860879076052143	-0.17797740154350472	0.5139141447462792	-0.1003289989975017	-0.16241485765275793	0.5094525828617037	-0.08898432697254599	-0.14069912922389105	0.49742106053573654	-0.06560734492492637	-0.10998300943533346	0.4772036342700934	-0.11610341671295399	-0.16404875648195927	0.477574389148555	-0.1074149138931304	-0.14930519993782737	0.478525532144049	-0.09633844352666421	-0.1314945528349588	0.478279437436432	-0.07106352628804635	-0.10576516405527919	0.462283081001861	-0.023011742144276925	-0.051989820119430985
46	1.5333333333333348	0.5340476390102646	0.019543871595948725	-0.1405836366810107	0.5177243497524957	0.008852224626326954	-0.12844943242674722	0.5046047453102941	0.008051199847836088	-0.10023499749381964	0.4736469065200648	-0.013659636084868199	-0.0765676820452656	0.5657764818376316	-0.06192071832021051	-0.17788681768171166	0.5574038935758635	-0.055145252632685215	-0.1633268441063211	0.5453020082105581	-0.046084048319514404	-0.14324080965449404	0.5241958751140111	-0.03230496583224274	-0.10891437486263422	0.5429409062289835	-0.09089130397846645	-0.18631106834076738	0.5374241606155632	-0.08283015163228924	-0.17106038505481175	0.5292019237423595	-0.0708572280207419	-0.1457927482244118	0.5133931239900942	-0.052573143742465356	-0.10821719721717238	0.5178778025615013	-0.10876405328917327	-0.17773004518901975	0.5141131623422952	-0.10056004003224295	-0.16212486494334338	0.5096550204317362	-0.08926268790745218	-0.14038377976633798	0.4975573355610251	-0.06584705395640789	-0.10972313819706103	0.47735278666287384	-0.11655608710894882	-0.16357750755108713	0.4777599250917487	-0.10791317105763343	-0.14880813923590025	0.47872998681443013	-0.09683974190288036	-0.13099662144518825	0.4783767903092533	-0.07137871764190296	-0.10545264080765515	0.462283081001861	-0.023011742144276925	-0.051989820119430985
